<svg width="35" height="24" viewBox="0 0 35 24" fill="none" xmlns="http://www.w3.org/2000/svg">
<g id="logo mark">
<g id="Path 2">
<path d="M14.4349 23.9541C13.4775 24.1064 12.4986 23.8773 11.7089 23.316C10.9192 22.7548 10.3821 21.9063 10.2131 20.9535L7.3712 4.26077C7.21855 3.3052 7.44811 2.32803 8.0104 1.5398C8.57268 0.751572 9.42269 0.215385 10.3773 0.0467716C11.3346 -0.105591 12.3136 0.123542 13.1032 0.684799C13.8929 1.24606 14.4301 2.09451 14.599 3.04734L17.4409 19.7425C17.5929 20.6977 17.363 21.6742 16.8008 22.4619C16.2386 23.2496 15.389 23.7854 14.4349 23.9541Z" fill="#0856DB"/>
<path d="M14.4349 23.9541C13.4775 24.1064 12.4986 23.8773 11.7089 23.316C10.9192 22.7548 10.3821 21.9063 10.2131 20.9535L7.3712 4.26077C7.21855 3.3052 7.44811 2.32803 8.0104 1.5398C8.57268 0.751572 9.42269 0.215385 10.3773 0.0467716C11.3346 -0.105591 12.3136 0.123542 13.1032 0.684799C13.8929 1.24606 14.4301 2.09451 14.599 3.04734L17.4409 19.7425C17.5929 20.6977 17.363 21.6742 16.8008 22.4619C16.2386 23.2496 15.389 23.7854 14.4349 23.9541Z" fill="black" fill-opacity="0.2"/>
</g>
<g id="Path 3">
<path d="M24.6237 23.9539C23.6664 24.1063 22.6874 23.8772 21.8977 23.3159C21.1081 22.7547 20.5709 21.9062 20.402 20.9534L17.5606 4.26063C17.4766 3.78954 17.4866 3.3065 17.5902 2.8393C17.6939 2.3721 17.889 1.92995 18.1644 1.53828C18.4398 1.14661 18.79 0.813138 19.195 0.557045C19.5999 0.300952 20.0516 0.127288 20.524 0.0460392C21.4813 -0.106323 22.4603 0.122809 23.25 0.684066C24.0396 1.24532 24.5768 2.09377 24.7457 3.0466L27.5877 19.7417C27.6714 20.2127 27.661 20.6955 27.5572 21.1625C27.4534 21.6295 27.2582 22.0713 26.9828 22.4627C26.7073 22.8542 26.3571 23.1874 25.9523 23.4433C25.5474 23.6992 25.0959 23.8727 24.6237 23.9539Z" fill="#0856DB"/>
<path d="M24.6237 23.9539C23.6664 24.1063 22.6874 23.8772 21.8977 23.3159C21.1081 22.7547 20.5709 21.9062 20.402 20.9534L17.5606 4.26063C17.4766 3.78954 17.4866 3.3065 17.5902 2.8393C17.6939 2.3721 17.889 1.92995 18.1644 1.53828C18.4398 1.14661 18.79 0.813138 19.195 0.557045C19.5999 0.300952 20.0516 0.127288 20.524 0.0460392C21.4813 -0.106323 22.4603 0.122809 23.25 0.684066C24.0396 1.24532 24.5768 2.09377 24.7457 3.0466L27.5877 19.7417C27.6714 20.2127 27.661 20.6955 27.5572 21.1625C27.4534 21.6295 27.2582 22.0713 26.9828 22.4627C26.7073 22.8542 26.3571 23.1874 25.9523 23.4433C25.5474 23.6992 25.0959 23.8727 24.6237 23.9539Z" fill="black" fill-opacity="0.2"/>
</g>
<path id="Path 4" d="M2.17505 23.6702C1.28994 23.2743 0.59719 22.5457 0.24749 21.6427C-0.10221 20.7397 -0.0805787 19.7354 0.307679 18.8483L7.65512 2.19393C8.05167 1.31029 8.78176 0.618697 9.68655 0.269625C10.5913 -0.0794456 11.5976 -0.0577547 12.4865 0.329979C13.3716 0.725803 14.0643 1.45445 14.414 2.35745C14.7637 3.26044 14.7421 4.26473 14.3539 5.15189L6.96493 21.8062C6.77544 22.2445 6.50065 22.6409 6.15652 22.9723C5.81238 23.3038 5.40573 23.5638 4.96016 23.7372C4.51459 23.9106 4.03897 23.9939 3.56088 23.9824C3.08278 23.9709 2.61173 23.8648 2.17505 23.6702Z" fill="#0856DB"/>
<path id="Path 5" d="M12.3241 23.6702C11.439 23.2743 10.7462 22.5457 10.3965 21.6427C10.0468 20.7397 10.0685 19.7354 10.4567 18.8483L17.8042 2.19393C18.2007 1.31029 18.9308 0.618696 19.8356 0.269625C20.7404 -0.0794455 21.7467 -0.0577547 22.6355 0.329979C23.5206 0.725803 24.2134 1.45445 24.5631 2.35745C24.9128 3.26044 24.8912 4.26473 24.5029 5.15189L17.1549 21.8062C16.76 22.6912 16.0302 23.3842 15.1249 23.7335C14.2196 24.0828 13.2126 24.06 12.3241 23.6702Z" fill="#0856DB"/>
<path id="Path 6" d="M22.4733 23.67C21.5882 23.2742 20.8954 22.5455 20.5457 21.6425C20.196 20.7395 20.2176 19.7353 20.6059 18.8481L27.9942 2.19377C28.3908 1.31028 29.1208 0.618801 30.0254 0.269742C30.9301 -0.0793177 31.9362 -0.057726 32.825 0.32982C33.7101 0.725644 34.4028 1.45429 34.7525 2.35729C35.1022 3.26028 35.0806 4.26457 34.6924 5.15173L27.304 21.8061C27.1113 22.2465 26.833 22.6445 26.4852 22.977C26.1374 23.3096 25.7271 23.57 25.278 23.7433C24.8288 23.9166 24.3497 23.9994 23.8683 23.9868C23.3869 23.9742 22.9127 23.8665 22.4733 23.67Z" fill="#0856DB"/>
</g>
</svg>
