<svg width="115" height="16" viewBox="0 0 115 16" fill="none" xmlns="http://www.w3.org/2000/svg">
<g id="MAYNOOTH">
<path fill-rule="evenodd" clip-rule="evenodd" d="M2.42 15.49H0V0.529989H2.33777L7.15 12.2803L11.9622 0.529989H14.34V15.49H11.92V7.77999C11.92 7.2979 11.9267 6.8812 11.9402 6.53038C11.9428 6.46216 11.9454 6.39547 11.9481 6.33031L8.23848 15.49H6.06147L2.37864 6.38816C2.37909 6.40963 2.37951 6.43126 2.37991 6.45305C2.40667 7.17663 2.42 8.04578 2.42 9.05999V15.49ZM2.03 4.85999C2.06288 5.0737 2.08816 5.35834 2.10583 5.71392C2.11683 5.93515 2.12489 6.18384 2.13 6.45999C2.15667 7.17999 2.17 8.04666 2.17 9.05999V15.24H0.25V0.779989H2.17L7.15 12.94L12.13 0.779989H14.09V15.24H12.17V7.77999C12.17 7.29999 12.1767 6.88666 12.19 6.53999C12.2031 6.2003 12.2161 5.89901 12.2292 5.63613C12.2295 5.63074 12.2297 5.62535 12.23 5.61999C12.2433 5.33999 12.2633 5.07332 12.29 4.81999L8.07 15.24H6.23L2.03 4.85999ZM19.0335 15.49H16.4596L21.9222 0.529989H24.4517L29.9349 15.49H27.3415L26.0415 11.89H20.3135L19.0335 15.49ZM20.137 11.64H23.177H26.217L27.517 15.24H29.577L24.277 0.779989H22.097L16.817 15.24H18.857L20.137 11.64ZM23.1719 3.98555L21.0942 9.68999H25.2788L23.1787 3.97614L23.1772 3.9709C23.1755 3.97574 23.1737 3.98071 23.1719 3.98555ZM23.0481 3.56208C23.0502 3.55505 23.0522 3.54803 23.0543 3.541C23.055 3.53851 23.0557 3.53602 23.0564 3.53353C23.0635 3.50902 23.0703 3.4845 23.077 3.45999L23.177 3.05999C23.1904 3.16666 23.2237 3.29999 23.277 3.45999C23.2837 3.47829 23.2902 3.4966 23.2967 3.5149L23.2986 3.52043C23.3026 3.53169 23.3065 3.54296 23.3104 3.55423C23.35 3.66948 23.3856 3.78474 23.417 3.89999L25.637 9.93999H20.737L22.937 3.89999C22.978 3.78736 23.015 3.67471 23.0481 3.56208ZM36.2534 9.35999V15.24H34.2934V9.35999L29.3934 0.779989H31.5934L34.8134 6.55999C34.9068 6.73332 34.9868 6.89332 35.0534 7.03999C35.088 7.10341 35.1226 7.16933 35.1572 7.23774C35.2026 7.32753 35.248 7.42161 35.2934 7.51999C35.3582 7.40347 35.404 7.30581 35.4311 7.227C35.4319 7.22465 35.4327 7.22231 35.4334 7.21999L35.5534 6.93999C35.6068 6.84666 35.6801 6.71999 35.7734 6.55999L38.9734 0.779989H41.1134L36.2534 9.35999ZM35.5561 6.43646L38.8261 0.529989H41.5424L36.5034 9.42588V15.49H34.0434V9.42635L28.9628 0.529989H31.7403L35.0336 6.44145C35.1273 6.6155 35.2086 6.77783 35.2773 6.92825C35.279 6.93141 35.2807 6.93458 35.2824 6.93775L35.3293 6.82837L35.3364 6.81596C35.39 6.72216 35.4633 6.59557 35.5561 6.43646ZM46.0123 15.49H43.5523V0.529989H45.8967L52.9124 11.133V0.529989H55.3724V15.49H53.028L46.0123 4.887V15.49ZM45.7623 4.05611V15.24H43.8023V0.779989H45.7623L53.1624 11.9639V0.779989H55.1224V15.24H53.1624L45.7623 4.05611ZM69.0989 14.7541C68.015 15.4072 66.7626 15.73 65.3499 15.73C63.9628 15.73 62.7178 15.4067 61.622 14.7548L61.6188 14.7529C60.5391 14.0885 59.6952 13.1744 59.0884 12.016C58.48 10.8546 58.1799 9.5135 58.1799 7.99999C58.1799 6.49941 58.4802 5.16512 59.0884 4.00399L59.0895 4.00193C59.7095 2.84462 60.5596 1.9312 61.6388 1.26708C62.7226 0.600138 63.969 0.269989 65.3699 0.269989C66.7835 0.269989 68.0367 0.599902 69.1209 1.26708C70.2003 1.93137 71.0442 2.84521 71.6509 4.00323C72.2727 5.16449 72.5798 6.49909 72.5798 7.99999C72.5798 9.50128 72.2726 10.8423 71.6511 12.0164C71.0439 13.1754 70.192 14.09 69.0989 14.7541ZM71.4299 4.11999C70.8432 2.99999 70.0299 2.11999 68.9899 1.47999C67.9499 0.83999 66.7432 0.519989 65.3699 0.519989C64.0098 0.519989 62.8099 0.83999 61.7699 1.47999C60.7299 2.11999 59.9099 2.99999 59.3099 4.11999C58.7232 5.23999 58.4299 6.53332 58.4299 7.99999C58.4299 9.47999 58.7232 10.78 59.3099 11.9C59.8965 13.02 60.7099 13.9 61.7499 14.54C62.8032 15.1667 64.0032 15.48 65.3499 15.48C66.7232 15.48 67.9298 15.1667 68.9698 14.54C70.0232 13.9 70.8432 13.02 71.4299 11.9C72.0299 10.7667 72.3298 9.46666 72.3298 7.99999C72.3298 6.53332 72.0299 5.23999 71.4299 4.11999ZM69.4255 5.17037L69.4241 5.16748C69.0431 4.36728 68.5076 3.7587 67.8184 3.33264L67.8156 3.33092C67.1276 2.89309 66.3156 2.66999 65.3699 2.66999C64.4382 2.66999 63.6326 2.89274 62.9441 3.33091L62.9413 3.33266C62.2517 3.75892 61.7092 4.36803 61.3149 5.16897C60.9342 5.96892 60.7399 6.91039 60.7399 7.99999C60.7399 9.08959 60.9342 10.0311 61.3149 10.831C61.7095 11.6325 62.2528 12.2492 62.9441 12.6891C63.6326 13.1272 64.4382 13.35 65.3699 13.35C66.3149 13.35 67.1264 13.1272 67.8141 12.6901C68.5061 12.2368 69.0428 11.6133 69.4241 10.8125L69.4255 10.8096C69.8192 10.0097 70.0199 9.07531 70.0199 7.99999C70.0199 6.91083 69.819 5.96992 69.4255 5.17037ZM67.9499 12.9C68.6832 12.42 69.2499 11.76 69.6499 10.92C70.0632 10.08 70.2699 9.10666 70.2699 7.99999C70.2699 6.87999 70.0632 5.89999 69.6499 5.05999C69.2499 4.21999 68.6832 3.57332 67.9499 3.11999C67.2165 2.65332 66.3565 2.41999 65.3699 2.41999C64.3965 2.41999 63.5432 2.65332 62.8099 3.11999C62.0765 3.57332 61.5032 4.21999 61.0899 5.05999C60.6898 5.89999 60.4899 6.87999 60.4899 7.99999C60.4899 9.11999 60.6898 10.1 61.0899 10.94C61.5032 11.78 62.0765 12.4333 62.8099 12.9C63.5432 13.3667 64.3965 13.6 65.3699 13.6C66.3565 13.6 67.2165 13.3667 67.9499 12.9ZM85.4458 14.7541C84.3619 15.4072 83.1094 15.73 81.6967 15.73C80.3096 15.73 79.0647 15.4067 77.9689 14.7548L77.9657 14.7529C76.886 14.0885 76.042 13.1744 75.4353 12.016C74.8269 10.8546 74.5267 9.5135 74.5267 7.99999C74.5267 6.49941 74.8271 5.16512 75.4353 4.00399L75.4363 4.00193C76.0563 2.84462 76.9065 1.9312 77.9857 1.26708C79.0695 0.600138 80.3159 0.269989 81.7167 0.269989C83.1304 0.269989 84.3836 0.599902 85.4678 1.26708C86.5471 1.93132 87.3909 2.84507 87.9976 4.00296C88.6195 5.16428 88.9267 6.49897 88.9267 7.99999C88.9267 9.50128 88.6194 10.8423 87.998 12.0164C87.3908 13.1754 86.5389 14.09 85.4458 14.7541ZM85.7724 5.17037L85.771 5.16748C85.39 4.36728 84.8545 3.7587 84.1653 3.33264L84.1625 3.33092C83.4745 2.89309 82.6625 2.66999 81.7167 2.66999C80.7851 2.66999 79.9795 2.89275 79.2909 3.33091L79.2882 3.33266C78.5985 3.75896 78.056 4.36815 77.6616 5.1692C77.2811 5.9691 77.0867 6.91049 77.0867 7.99999C77.0867 9.08949 77.2811 10.0309 77.6616 10.8308C78.0563 11.6324 78.5996 12.2491 79.2909 12.6891C79.9795 13.1272 80.7851 13.35 81.7167 13.35C82.6619 13.35 83.4735 13.1272 84.1612 12.6899C84.8531 12.2366 85.3897 11.6132 85.771 10.8125L85.7724 10.8096C86.166 10.0097 86.3667 9.07531 86.3667 7.99999C86.3667 6.91083 86.1658 5.96993 85.7724 5.17037ZM84.2967 12.9C83.5634 13.3667 82.7034 13.6 81.7167 13.6C80.7434 13.6 79.8901 13.3667 79.1567 12.9C78.4234 12.4333 77.8501 11.78 77.4367 10.94C77.0367 10.1 76.8367 9.11999 76.8367 7.99999C76.8367 6.87999 77.0367 5.89999 77.4367 5.05999C77.8501 4.21999 78.4234 3.57332 79.1567 3.11999C79.8901 2.65332 80.7434 2.41999 81.7167 2.41999C82.7034 2.41999 83.5634 2.65332 84.2967 3.11999C85.0301 3.57332 85.5967 4.21999 85.9967 5.05999C86.4101 5.89999 86.6167 6.87999 86.6167 7.99999C86.6167 9.10666 86.4101 10.08 85.9967 10.92C85.5967 11.76 85.0301 12.42 84.2967 12.9ZM96.3958 2.57999V15.24H94.4358V2.57999H90.0758V0.779989H100.736V2.57999H96.3958ZM94.1858 2.82999H89.8258V0.529989H100.986V2.82999H96.6458V15.49H94.1858V2.82999ZM105.716 15.49H103.256V0.529989H105.716V6.74999H112.376V0.529989H114.836V15.49H112.376V9.06999H105.716V15.49ZM112.626 8.81999V15.24H114.586V0.779989H112.626V6.99999H105.466V0.779989H103.506V15.24H105.466V8.81999H112.626ZM87.7767 11.9C88.3767 10.7667 88.6767 9.46666 88.6767 7.99999C88.6767 6.53332 88.3767 5.23999 87.7767 4.11999C87.1901 2.99999 86.3767 2.11999 85.3367 1.47999C84.2967 0.83999 83.0901 0.519989 81.7167 0.519989C80.3567 0.519989 79.1567 0.83999 78.1167 1.47999C77.0767 2.11999 76.2567 2.99999 75.6567 4.11999C75.0701 5.23999 74.7767 6.53332 74.7767 7.99999C74.7767 9.47999 75.0701 10.78 75.6567 11.9C76.2434 13.02 77.0567 13.9 78.0967 14.54C79.1501 15.1667 80.3501 15.48 81.6967 15.48C83.0701 15.48 84.2767 15.1667 85.3167 14.54C86.3701 13.9 87.1901 13.02 87.7767 11.9Z" fill="#09111F"/>
<path d="M2.03 4.85999C2.06288 5.0737 2.08816 5.35834 2.10583 5.71392C2.11683 5.93515 2.12489 6.18384 2.13 6.45999C2.15667 7.17999 2.17 8.04666 2.17 9.05999V15.24H0.25V0.779989H2.17L7.15 12.94L12.13 0.779989H14.09V15.24H12.17V7.77999C12.17 7.29999 12.1767 6.88666 12.19 6.53999C12.2031 6.2003 12.2161 5.89901 12.2292 5.63613L12.23 5.61999C12.2433 5.33999 12.2633 5.07332 12.29 4.81999L8.07 15.24H6.23L2.03 4.85999Z" fill="#09111F"/>
<path fill-rule="evenodd" clip-rule="evenodd" d="M27.517 15.24L26.217 11.64H23.177H20.137L18.857 15.24H16.817L22.097 0.779989H24.277L29.577 15.24H27.517ZM23.0481 3.56208L23.0543 3.541L23.0564 3.53353C23.0635 3.50902 23.0703 3.4845 23.077 3.45999L23.177 3.05999C23.1904 3.16666 23.2237 3.29999 23.277 3.45999L23.2967 3.5149L23.2986 3.52043L23.3104 3.55423C23.35 3.66948 23.3856 3.78474 23.417 3.89999L25.637 9.93999H20.737L22.937 3.89999C22.978 3.78736 23.015 3.67471 23.0481 3.56208Z" fill="#09111F"/>
<path d="M34.8134 6.55999L31.5934 0.779989H29.3934L34.2934 9.35999V15.24H36.2534V9.35999L41.1134 0.779989H38.9734L35.7734 6.55999C35.6801 6.71999 35.6068 6.84666 35.5534 6.93999L35.4334 7.21999L35.4311 7.227C35.404 7.30581 35.3582 7.40347 35.2934 7.51999C35.248 7.42161 35.2026 7.32753 35.1572 7.23774C35.1226 7.16933 35.088 7.10341 35.0534 7.03999C34.9868 6.89332 34.9068 6.73332 34.8134 6.55999Z" fill="#09111F"/>
<path d="M53.1624 15.24L45.7623 4.05611V15.24H43.8023V0.779989H45.7623L53.1624 11.9639V0.779989H55.1224V15.24H53.1624Z" fill="#09111F"/>
<path fill-rule="evenodd" clip-rule="evenodd" d="M71.4299 4.11999C70.8432 2.99999 70.0299 2.11999 68.9899 1.47999C67.9499 0.83999 66.7432 0.519989 65.3699 0.519989C64.0098 0.519989 62.8099 0.83999 61.7699 1.47999C60.7299 2.11999 59.9099 2.99999 59.3099 4.11999C58.7232 5.23999 58.4299 6.53332 58.4299 7.99999C58.4299 9.47999 58.7232 10.78 59.3099 11.9C59.8965 13.02 60.7099 13.9 61.7499 14.54C62.8032 15.1667 64.0032 15.48 65.3499 15.48C66.7232 15.48 67.9298 15.1667 68.9698 14.54C70.0232 13.9 70.8432 13.02 71.4299 11.9C72.0299 10.7667 72.3298 9.46666 72.3298 7.99999C72.3298 6.53332 72.0299 5.23999 71.4299 4.11999ZM67.9499 12.9C68.6832 12.42 69.2499 11.76 69.6499 10.92C70.0632 10.08 70.2699 9.10666 70.2699 7.99999C70.2699 6.87999 70.0632 5.89999 69.6499 5.05999C69.2499 4.21999 68.6832 3.57332 67.9499 3.11999C67.2165 2.65332 66.3565 2.41999 65.3699 2.41999C64.3965 2.41999 63.5432 2.65332 62.8099 3.11999C62.0765 3.57332 61.5032 4.21999 61.0899 5.05999C60.6898 5.89999 60.4899 6.87999 60.4899 7.99999C60.4899 9.11999 60.6898 10.1 61.0899 10.94C61.5032 11.78 62.0765 12.4333 62.8099 12.9C63.5432 13.3667 64.3965 13.6 65.3699 13.6C66.3565 13.6 67.2165 13.3667 67.9499 12.9Z" fill="#09111F"/>
<path fill-rule="evenodd" clip-rule="evenodd" d="M88.6767 7.99999C88.6767 9.46666 88.3767 10.7667 87.7767 11.9C87.1901 13.02 86.3701 13.9 85.3167 14.54C84.2767 15.1667 83.0701 15.48 81.6967 15.48C80.3501 15.48 79.1501 15.1667 78.0967 14.54C77.0567 13.9 76.2434 13.02 75.6567 11.9C75.0701 10.78 74.7767 9.47999 74.7767 7.99999C74.7767 6.53332 75.0701 5.23999 75.6567 4.11999C76.2567 2.99999 77.0767 2.11999 78.1167 1.47999C79.1567 0.83999 80.3567 0.519989 81.7167 0.519989C83.0901 0.519989 84.2967 0.83999 85.3367 1.47999C86.3767 2.11999 87.1901 2.99999 87.7767 4.11999C88.3767 5.23999 88.6767 6.53332 88.6767 7.99999ZM84.2967 12.9C83.5634 13.3667 82.7034 13.6 81.7167 13.6C80.7434 13.6 79.8901 13.3667 79.1567 12.9C78.4234 12.4333 77.8501 11.78 77.4367 10.94C77.0367 10.1 76.8367 9.11999 76.8367 7.99999C76.8367 6.87999 77.0367 5.89999 77.4367 5.05999C77.8501 4.21999 78.4234 3.57332 79.1567 3.11999C79.8901 2.65332 80.7434 2.41999 81.7167 2.41999C82.7034 2.41999 83.5634 2.65332 84.2967 3.11999C85.0301 3.57332 85.5967 4.21999 85.9967 5.05999C86.4101 5.89999 86.6167 6.87999 86.6167 7.99999C86.6167 9.10666 86.4101 10.08 85.9967 10.92C85.5967 11.76 85.0301 12.42 84.2967 12.9Z" fill="#09111F"/>
<path d="M100.736 2.57999H96.3958V15.24H94.4358V2.57999H90.0758V0.779989H100.736V2.57999Z" fill="#09111F"/>
<path d="M112.626 8.81999H105.466V15.24H103.506V0.779989H105.466V6.99999H112.626V0.779989H114.586V15.24H112.626V8.81999Z" fill="#09111F"/>
</g>
</svg>
